<svg xmlns="http://www.w3.org/2000/svg" viewBox="0 0 549.43 383.36"><defs><style>.cls-1,.cls-2,.cls-3,.cls-4,.cls-5{fill:#f39d3f;}.cls-2{opacity:0.8;}.cls-3{opacity:0.6;}.cls-4{opacity:0.4;}.cls-5{opacity:0.2;}.cls-6{fill:#c0392b;}.cls-7{fill:#4faf61;}.cls-8{fill:#3798db;}.cls-9{fill:#8e44ad;}.cls-10{opacity:0.07;}</style></defs><title>SHODOWMAsset 8</title><g id="Layer_2" data-name="Layer 2"><g id="Layer_1-2" data-name="Layer 1"><path class="cls-1" d="M111.8,125.93c0,33.89-21.77,61.35-55.67,61.35-22.26,0-38.59-11.62-47.25-29.44v81.65H.22V66.3H8.88V93.77c8.66-17.57,25-29.44,47.25-29.44C90,64.33,111.8,92,111.8,125.93Zm-9.16,0C102.64,96.74,85.33,73,56.13,73s-46.51,23.76-46.51,53,17.32,52.7,46.51,52.7S102.64,155.12,102.64,125.93Z"/><path class="cls-2" d="M239.45,117.76v67.79H230.8V117.76c0-26-13.36-44.78-37.86-44.78-22.26,0-39.09,19-39.09,47.75v64.82h-8.66V12.37h8.66V90.55c7.18-15.09,20.54-26,39.09-26C222.63,64.57,239.45,85.35,239.45,117.76Z"/><path class="cls-3" d="M361.17,176.89v8.66h-92v-8.66L348.06,75H272.35V66.3h86.59V75L280,176.89Z"/><path class="cls-4" d="M477.94,176.89v8.66h-92v-8.66L464.83,75H389.12V66.3h86.59V75L396.79,176.89Z"/><path class="cls-5" d="M549.43,181.84c-3.21,2.23-10.39,5.44-17.07,5.44-19.54,0-24.74-9.64-24.74-33.64V0h8.66V154.38c0,16.58,3.22,24.25,16.08,24.25,4.95,0,10.89-2.23,13.86-4Z"/><path class="cls-1" d="M111.8,125.93c0,33.89-21.77,61.35-55.67,61.35-22.26,0-38.59-11.62-47.25-29.44v81.65H.22V66.3H8.88V93.77c8.66-17.57,25-29.44,47.25-29.44C90,64.33,111.8,92,111.8,125.93Zm-9.16,0C102.64,96.74,85.33,73,56.13,73s-46.51,23.76-46.51,53,17.32,52.7,46.51,52.7S102.64,155.12,102.64,125.93Z"/><path class="cls-2" d="M239.45,117.76v67.79H230.8V117.76c0-26-13.36-44.78-37.86-44.78-22.26,0-39.09,19-39.09,47.75v64.82h-8.66V12.37h8.66V90.55c7.18-15.09,20.54-26,39.09-26C222.63,64.57,239.45,85.35,239.45,117.76Z"/><path class="cls-3" d="M361.17,176.89v8.66h-92v-8.66L348.06,75H272.35V66.3h86.59V75L280,176.89Z"/><path class="cls-4" d="M477.94,176.89v8.66h-92v-8.66L464.83,75H389.12V66.3h86.59V75L396.79,176.89Z"/><path class="cls-5" d="M549.43,181.84c-3.21,2.23-10.39,5.44-17.07,5.44-19.54,0-24.74-9.64-24.74-33.64V0h8.66V154.38c0,16.58,3.22,24.25,16.08,24.25,4.95,0,10.89-2.23,13.86-4Z"/><path class="cls-6" d="M111.8,125.93c0,33.89-21.77,61.35-55.67,61.35-22.26,0-38.59-11.62-47.25-29.44v81.65H.22V66.3H8.88V93.77c8.66-17.57,25-29.44,47.25-29.44C90,64.33,111.8,92,111.8,125.93Zm-9.16,0C102.64,96.74,85.33,73,56.13,73s-46.51,23.76-46.51,53,17.32,52.7,46.51,52.7S102.64,155.12,102.64,125.93Z"/><path class="cls-1" d="M239.45,117.76v67.79H230.8V117.76c0-26-13.36-44.78-37.86-44.78-22.26,0-39.09,19-39.09,47.75v64.82h-8.66V12.37h8.66V90.55c7.18-15.09,20.54-26,39.09-26C222.63,64.57,239.45,85.35,239.45,117.76Z"/><path class="cls-7" d="M361.17,176.89v8.66h-92v-8.66L348.06,75H272.35V66.3h86.59V75L280,176.89Z"/><path class="cls-8" d="M477.94,176.89v8.66h-92v-8.66L464.83,75H389.12V66.3h86.59V75L396.79,176.89Z"/><path class="cls-9" d="M549.43,181.84c-3.21,2.23-10.39,5.44-17.07,5.44-19.54,0-24.74-9.64-24.74-33.64V0h8.66V154.38c0,16.58,3.22,24.25,16.08,24.25,4.95,0,10.89-2.23,13.86-4Z"/><ellipse class="cls-10" cx="264.23" cy="360.39" rx="264.23" ry="22.97"/></g></g></svg>