<svg xmlns="http://www.w3.org/2000/svg" viewBox="0 0 561.21 244.72"><defs><style>.cls-1,.cls-2,.cls-3,.cls-4,.cls-5{fill:#f39d3f;}.cls-2{opacity:0.8;}.cls-3{opacity:0.6;}.cls-4{opacity:0.4;}.cls-5{opacity:0.2;}.cls-6{fill:#c0392b;}.cls-7{fill:#4faf61;}.cls-8{fill:#3798db;}.cls-9{fill:#8e44ad;}</style></defs><title>MULTIAsset 9</title><g id="Layer_2" data-name="Layer 2"><g id="Layer_1-2" data-name="Layer 1"><path class="cls-1" d="M114,128.68c0,34.63-22.25,62.7-56.89,62.7-22.75,0-39.43-11.89-48.28-30.09v83.43H0v-177H8.85V95.81C17.7,77.87,34.38,65.73,57.13,65.73,91.77,65.73,114,94,114,128.68Zm-9.36,0c0-29.83-17.69-54.1-47.53-54.1S9.61,98.85,9.61,128.68s17.69,53.85,47.52,53.85S104.66,158.51,104.66,128.68Z"/><path class="cls-2" d="M244.46,120.34v69.27h-8.85V120.34c0-26.55-13.65-45.76-38.68-45.76C174.18,74.58,157,94,157,123.37v66.24h-8.85v-177H157V92.53C164.32,77.11,178,66,196.93,66,227.27,66,244.46,87.22,244.46,120.34Z"/><path class="cls-3" d="M368.83,180.76v8.85h-94v-8.85L355.44,76.6H278.08V67.75h88.48V76.6L285.91,180.76Z"/><path class="cls-4" d="M488.15,180.76v8.85h-94v-8.85L474.75,76.6H397.4V67.75h88.48V76.6L405.23,180.76Z"/><path class="cls-5" d="M561.21,185.81c-3.29,2.28-10.62,5.57-17.44,5.57-20,0-25.29-9.86-25.29-34.39V0h8.85V157.75c0,16.94,3.29,24.78,16.44,24.78,5.05,0,11.12-2.28,14.15-4.05Z"/><path class="cls-1" d="M114,128.68c0,34.63-22.25,62.7-56.89,62.7-22.75,0-39.43-11.89-48.28-30.09v83.43H0v-177H8.85V95.81C17.7,77.87,34.38,65.73,57.13,65.73,91.77,65.73,114,94,114,128.68Zm-9.36,0c0-29.83-17.69-54.1-47.53-54.1S9.61,98.85,9.61,128.68s17.69,53.85,47.52,53.85S104.66,158.51,104.66,128.68Z"/><path class="cls-2" d="M244.46,120.34v69.27h-8.85V120.34c0-26.55-13.65-45.76-38.68-45.76C174.18,74.58,157,94,157,123.37v66.24h-8.85v-177H157V92.53C164.32,77.11,178,66,196.93,66,227.27,66,244.46,87.22,244.46,120.34Z"/><path class="cls-3" d="M368.83,180.76v8.85h-94v-8.85L355.44,76.6H278.08V67.75h88.48V76.6L285.91,180.76Z"/><path class="cls-4" d="M488.15,180.76v8.85h-94v-8.85L474.75,76.6H397.4V67.75h88.48V76.6L405.23,180.76Z"/><path class="cls-5" d="M561.21,185.81c-3.29,2.28-10.62,5.57-17.44,5.57-20,0-25.29-9.86-25.29-34.39V0h8.85V157.75c0,16.94,3.29,24.78,16.44,24.78,5.05,0,11.12-2.28,14.15-4.05Z"/><path class="cls-6" d="M114,128.68c0,34.63-22.25,62.7-56.89,62.7-22.75,0-39.43-11.89-48.28-30.09v83.43H0v-177H8.85V95.81C17.7,77.87,34.38,65.73,57.13,65.73,91.77,65.73,114,94,114,128.68Zm-9.36,0c0-29.83-17.69-54.1-47.53-54.1S9.61,98.85,9.61,128.68s17.69,53.85,47.52,53.85S104.66,158.51,104.66,128.68Z"/><path class="cls-1" d="M244.46,120.34v69.27h-8.85V120.34c0-26.55-13.65-45.76-38.68-45.76C174.18,74.58,157,94,157,123.37v66.24h-8.85v-177H157V92.53C164.32,77.11,178,66,196.93,66,227.27,66,244.46,87.22,244.46,120.34Z"/><path class="cls-7" d="M368.83,180.76v8.85h-94v-8.85L355.44,76.6H278.08V67.75h88.48V76.6L285.91,180.76Z"/><path class="cls-8" d="M488.15,180.76v8.85h-94v-8.85L474.75,76.6H397.4V67.75h88.48V76.6L405.23,180.76Z"/><path class="cls-9" d="M561.21,185.81c-3.29,2.28-10.62,5.57-17.44,5.57-20,0-25.29-9.86-25.29-34.39V0h8.85V157.75c0,16.94,3.29,24.78,16.44,24.78,5.05,0,11.12-2.28,14.15-4.05Z"/></g></g></svg>